<?xml version="1.0" standalone="no"?>
<!DOCTYPE svg PUBLIC "-//W3C//DTD SVG 1.1//EN" "http://www.w3.org/Graphics/SVG/1.1/DTD/svg11.dtd" >
<svg xmlns="http://www.w3.org/2000/svg">
<metadata>Generated by IcoMoon</metadata>
<defs>
<font id="filing-icons" horiz-adv-x="1024">
<font-face units-per-em="1024" ascent="960" descent="-64" />
<missing-glyph horiz-adv-x="1024" />
<glyph unicode="&#x20;" horiz-adv-x="512" d="" />
<glyph unicode="&#x41;" glyph-name="plus-circle" d="M512-85.333c-282.752 0-512 229.248-512 512s229.248 512 512 512c282.752 0 512-229.248 512-512s-229.248-512-512-512c0 0 0 0 0 0M512 810.667c-212.032 0-384-171.968-384-384s171.968-384 384-384c212.032 0 384 171.968 384 384s-171.968 384-384 384c0 0 0 0 0 0M704 362.667c0 0-128 0-128 0s0-128 0-128c0-35.392-28.608-64-64-64-35.328 0-64 28.608-64 64 0 0 0 128 0 128s-128 0-128 0c-35.328 0-64 28.608-64 64 0 35.328 28.672 64 64 64 0 0 128 0 128 0s0 128 0 128c0 35.328 28.672 64 64 64 35.392 0 64-28.672 64-64 0 0 0-128 0-128s128 0 128 0c35.392 0 64-28.672 64-64 0-35.392-28.608-64-64-64 0 0 0 0 0 0" />
<glyph unicode="&#xe900;" glyph-name="vessel" horiz-adv-x="878" d="M390.095 60.709v195.291c0 26.93 21.831 48.762 48.762 48.762s48.762-21.831 48.762-48.762v0-195.291h45.787c32.588 0.014 61.438 16.009 79.138 40.574l0.198 0.289 167.448 234.447v85.577l-341.333 75.776-341.333-75.825v-90.941l126.001-220.745c17.115-29.599 48.618-49.197 84.699-49.201h81.872zM682.52 743.619c73.289 0 97.67-24.332 97.67-97.573v-124.587l59.343-13.166c22.003-5.017 38.176-24.415 38.181-47.591v0-155.941l-185.588-259.901c-35.813-49.699-93.53-81.676-158.715-81.676-0.002 0-0.003 0-0.005 0h-225.231c-72.134 0.016-135.116 39.187-168.849 97.416l-0.501 0.937-138.825 243.224v155.941c0.004 23.177 16.177 42.575 37.853 47.529l0.327 0.063 59.343 13.166v124.635c0 73.045 24.478 97.524 97.524 97.524v117.029c0 58.368 17.457 78.019 69.681 78.019h348.16c52.419 0 69.778-19.456 69.778-78.019v-117.029h-0.146zM585.143 743.619v97.524h-292.571v-97.524h292.571zM195.048 543.159l243.81 54.174 243.761-54.126-0.098 102.888-487.473-0.049v-102.888z" />
<glyph unicode="&#xe901;" glyph-name="view" d="M512 87.467c-131.818 0-252.848 49.773-348.397 132.087-80.866 69.668-135.603 157.708-135.603 219.913 0 62.215 54.652 150.259 135.435 219.903 95.498 82.329 216.562 132.097 348.565 132.097 132.023 0 253.093-49.693 348.552-131.912 80.833-69.625 135.448-157.668 135.448-220.088 0-62.409-54.7-150.448-135.619-220.098-95.506-82.206-216.544-131.902-348.381-131.902zM512 175.467c109.607 0 210.71 41.509 290.973 110.599 63.403 54.576 105.027 121.566 105.027 153.401 0 31.883-41.551 98.863-104.88 153.411-80.207 69.085-181.328 110.589-291.12 110.589-109.751 0-210.853-41.563-291.107-110.749-63.297-54.566-104.893-121.583-104.893-153.251 0-31.621 41.673-98.649 105.043-153.242 80.309-69.185 181.395-110.758 290.957-110.758zM512 263.467c-97.202 0-176 78.798-176 176s78.798 176 176 176c97.202 0 176-78.798 176-176s-78.798-176-176-176zM515.728 527.389c-1.237 0.050-2.481 0.078-3.728 0.078-48.602 0-88-39.398-88-88s39.398-88 88-88c48.602 0 88 39.398 88 88 0 1.249-0.027 2.492-0.078 3.728-6.858-2.415-14.239-3.728-21.922-3.728-36.449 0-66 29.551-66 66 0 7.683 1.314 15.065 3.728 21.922v0z" />
<glyph unicode="&#xe902;" glyph-name="export" d="M382.31 457.647l69.24-69.3v469.2c0 34.197 27.723 61.92 61.92 61.92s61.92-27.723 61.92-61.92v0-469.2l69.24 69.3c11.21 11.21 26.695 18.142 43.8 18.142 34.21 0 61.942-27.732 61.942-61.942 0-17.105-6.933-32.59-18.143-43.8v0l-174.78-174.84c-11.194-11.303-26.716-18.3-43.872-18.3-0.017 0-0.034 0-0.050 0h0.003c-0.105-0.001-0.231-0.001-0.355-0.001-16.989 0-32.36 6.929-43.44 18.116l-175.025 175.025c-11.21 11.21-18.143 26.695-18.143 43.8 0 34.21 27.732 61.943 61.942 61.943 17.105 0 32.59-6.933 43.8-18.142v0zM897.71 83.367v185.88c0 34.2 28.8 61.92 64.26 61.92 35.52 0 64.32-27.72 64.32-61.92v-185.88c0-68.34-57.6-123.9-128.28-123.9h-772.020c-70.98 0-128.28 55.32-128.28 123.9v185.88c0 34.2 28.8 61.92 64.26 61.92 35.52 0 64.32-27.72 64.32-61.92 0 0-0.18-185.88-0.3-185.88h771.72z" />
<glyph unicode="&#xe903;" glyph-name="dropdown" d="M256 554.667l256-256 256 256z" />
<glyph unicode="&#xe904;" glyph-name="prev" d="M708.004 109.863l-316.111 316.803 316.111 316.803-97.319 97.319-414.121-414.121 414.121-414.121z" />
<glyph unicode="&#xe905;" glyph-name="next" d="M321.356 114.075l311.909 312.591-311.909 312.591 96.025 96.025 408.615-408.615-408.615-408.615z" />
<glyph unicode="&#xe906;" glyph-name="warning" d="M59.981-8.691c-0.008 0-0.019 0-0.029 0-24.97 0-45.212 20.243-45.212 45.212 0 8.326 2.251 16.121 6.173 22.82l-0.114-0.213 452.004 779.462c8.001 13.57 22.546 22.537 39.184 22.537s31.184-8.962 39.068-22.326l0.114-0.21 452.004-779.462c3.83-6.499 6.092-14.32 6.092-22.666 0-24.97-20.243-45.212-45.212-45.212-0.022 0-0.045 0-0.067 0h-904.003zM138.53 81.734h746.909l-373.457 643.947-373.457-643.947zM508.97 137.796c-23.305 0-42.198 18.893-42.198 42.198s18.893 42.198 42.198 42.198v0c23.305 0 42.198-18.893 42.198-42.198s-18.893-42.198-42.198-42.198v0zM466.772 517.46c0 23.305 18.893 42.198 42.198 42.198s42.198-18.893 42.198-42.198v0-210.749c0-23.305-18.893-42.198-42.198-42.198s-42.198 18.893-42.198 42.198v0 210.749z" />
<glyph unicode="&#xe907;" glyph-name="add" d="M512 810.667c35.346 0 64.001-28.653 64.001-64.001v-640.001c0-35.346-28.653-64.001-64.001-64.001s-64.001 28.653-64.001 64.001v640.001c0 35.346 28.653 64.001 64.001 64.001zM896 426.667c0-35.346-28.653-64.001-64.001-64.001h-640.001c-35.346 0-64.001 28.653-64.001 64.001s28.653 64.001 64.001 64.001h640.001c35.346 0 64.001-28.653 64.001-64.001z" />
<glyph unicode="&#xe908;" glyph-name="settings" d="M687.463 748.578l38.656-22.221s115.354 19.814 122.061 20.429c34.867 4.198 72.499-14.234 90.061-44.186l48.384-82.534c17.664-30.054 15.104-71.526-5.274-97.741-4.762-6.554-79.718-94.976-79.718-94.976s0.461-6.502 0.461-22.016c0-7.475-0.666-22.323-0.666-22.323s75.162-88.115 79.053-93.542c11.083-14.974 17.74-33.807 17.74-54.194 0-16.386-4.3-31.767-11.834-45.078l0.237 0.456-48.384-82.586c-17.664-30.054-55.398-48.64-88.986-44.288l-123.75 20.582-38.042-22.067s-40.346-108.288-43.162-114.278c-13.722-31.846-48.794-54.682-83.866-54.682h-96.87c-35.277 0-70.451 22.886-83.302 53.402-3.379 7.322-43.827 115.968-43.827 115.968l-38.758 21.76s-115.149-19.968-121.856-20.582c-34.918-4.198-72.499 14.234-90.061 44.186l-48.384 82.534c-17.664 30.054-15.104 71.526 5.274 97.741 4.762 6.554 79.821 95.027 79.821 95.027s-0.512 6.451-0.512 21.965c0 7.322 0.563 21.914 0.563 21.914s-75.11 88.576-79.002 93.952c-11.089 14.97-17.75 33.803-17.75 54.191 0 16.388 4.304 31.771 11.843 45.081l-0.237-0.455 48.384 82.586c17.664 30.054 55.347 48.64 88.627 44.339 8.141-0.768 124.416-20.685 124.416-20.685l38.195 22.323s39.885 108.032 42.701 114.074c13.722 31.846 48.742 54.682 83.866 54.682h96.87c35.226 0 70.451-22.886 83.302-53.35 3.379-7.322 43.725-115.405 43.725-115.405zM601.703 673.928l-6.963 22.989c-10.189 33.434-38.963 109.312-42.035 116.378-1.792 4.096-79.616 4.096-81.408 0-3.072-7.066-31.846-82.944-41.984-116.378l-7.014-23.040-22.426-9.37c-22.776-9.689-42.404-21.080-60.399-34.534l0.751 0.537-19.507-14.438-23.808 5.53c-34.509 8.090-115.712 21.504-123.494 22.426-4.506 0.512-43.418-65.843-40.653-69.376 4.71-6.195 57.037-68.71 81.408-94.106l16.742-17.408-2.918-23.808c-1.316-10.207-2.067-22.014-2.067-33.997s0.751-23.79 2.209-35.377l-0.142 1.38 2.918-23.808-16.742-17.408c-24.371-25.395-76.698-87.91-81.408-94.106-2.765-3.584 36.147-69.888 40.653-69.376 7.782 0.922 88.986 14.336 123.494 22.426l23.808 5.53 19.456-14.438c18.432-13.67 38.502-25.088 59.699-33.997l22.426-9.421 7.014-23.040c10.138-33.382 38.912-109.261 41.984-116.326 1.792-4.096 79.616-4.096 81.408 0 3.072 7.066 31.846 82.944 41.984 116.378l7.014 23.040 22.426 9.37c22.776 9.689 42.404 21.080 60.399 34.534l-0.751-0.537 19.558 14.438 23.757-5.53c34.509-8.090 115.712-21.504 123.494-22.426 2.662-0.307 43.418 65.843 40.653 69.427-4.71 6.144-57.037 68.608-81.408 94.054l-16.742 17.408 2.918 23.859c1.312 10.192 2.061 21.981 2.061 33.946s-0.749 23.754-2.202 35.324l0.141-1.379-2.918 23.859 16.742 17.408c24.371 25.395 76.698 87.91 81.408 94.054 2.765 3.584-36.147 69.939-40.653 69.427-7.834-0.973-88.986-14.336-123.494-22.426l-23.757-5.53-19.558 14.438c-17.244 12.917-36.872 24.308-57.781 33.284l-1.867 0.713-22.426 9.421zM512.001 251.733c-86.17 0-156.058 68.762-156.058 153.6s69.888 153.6 156.058 153.6 156.058-68.762 156.058-153.6-69.888-153.6-156.058-153.6zM512.001 354.133c28.723 0 52.019 22.938 52.019 51.2s-23.347 51.2-52.019 51.2c-28.723 0-52.019-22.938-52.019-51.2s23.296-51.2 52.019-51.2z" />
<glyph unicode="&#xe909;" glyph-name="dashboard" d="M125.829 448.724c-14.108-40.355-22.257-86.879-22.257-135.303 0-0.184 0-0.365 0-0.549v0.029c0-83.865 24.378-163.863 69.138-231.129 12.48-0.582 679.077 0.249 679.077 0.249 43.020 64.75 68.642 144.29 68.642 229.816 0 0.375-0.001 0.749-0.002 1.122v-0.058c0 47.55-7.821 93.267-22.257 135.825l-63.606-36.732c-6.571-3.91-14.488-6.221-22.944-6.221-16.719 0-31.327 9.031-39.214 22.48l-0.116 0.214c-3.783 6.498-6.016 14.302-6.016 22.628 0 16.824 9.12 31.52 22.688 39.407l0.218 0.117 70.512 40.686c-64.479 106.206-174.513 180.669-302.307 195.063v-90.438c0-25.251-20.134-45.718-45.386-45.718-25.044 0-45.345 20.508-45.345 45.759v90.354c-127.878-14.394-237.951-88.857-302.391-195.063l70.512-40.644c21.84-12.606 29.412-40.476 16.89-62.151-8.004-13.663-22.611-22.693-39.33-22.693-8.456 0-16.373 2.311-23.156 6.336l0.209-0.115-63.606 36.732zM1011.201 312.899c0.001-0.346 0.002-0.757 0.002-1.167 0-114.389-37.473-220.025-100.817-305.301l0.975 1.374c-8.57-11.649-22.006-18.471-36.276-18.471h-726.17c-14.268 0-27.705 6.822-36.276 18.471-62.368 83.902-99.842 189.538-99.842 303.927 0 0.41 0.001 0.821 0.002 1.231v-0.064c0 280.8 223.518 508.434 499.2 508.434s499.2-227.634 499.2-508.434zM553.476 247.088c-16.292-16.702-39.020-27.061-64.167-27.061s-47.876 10.36-64.149 27.044l-0.018 0.019c-16.449 16.858-26.597 39.93-26.597 65.374s10.148 48.517 26.616 65.393l-0.019-0.019c65.187 66.393 216.030 117.021 216.030 117.021 23.712 8.985 35.901-3.453 27.414-27.207 0 0-49.878-154.128-115.107-220.563z" />
<glyph unicode="&#xe90a;" glyph-name="delete" horiz-adv-x="878" d="M164.571 22.48h548.571l-0.073 700.635h-548.498v-700.635zM822.857 22.48c0-59.538-49.225-107.813-109.641-107.813h-548.645c-0.327-0.004-0.714-0.006-1.101-0.006-59.681 0-108.12 48.134-108.613 107.698v700.756c-0.174-0.002-0.381-0.003-0.587-0.003-29.82 0-54.023 24.051-54.27 53.813v0.023c0 29.769 24.357 53.906 54.857 53.906h274.286c0 59.538 49.152 107.813 109.714 107.813s109.714-48.274 109.714-107.813h274.286c30.281 0 54.857-23.918 54.857-53.906-0.247-29.786-24.45-53.836-54.27-53.836-0.206 0-0.412 0.001-0.618 0.003h0.031v-700.709zM493.714 561.542c0.205 29.737 24.359 53.765 54.125 53.765 0.258 0 0.515-0.002 0.772-0.005h-0.039c30.281 0 54.857-24.064 54.857-53.76v-377.563c-0.205-29.737-24.359-53.765-54.125-53.765-0.258 0-0.515 0.002-0.772 0.005h0.039c-0.175-0.002-0.381-0.003-0.588-0.003-29.795 0-53.982 24.009-54.269 53.736v377.59zM274.286 561.542c0.205 29.737 24.359 53.765 54.125 53.765 0.258 0 0.515-0.002 0.772-0.005h-0.039c30.281 0 54.857-24.064 54.857-53.76v-377.563c-0.205-29.737-24.359-53.765-54.125-53.765-0.258 0-0.515 0.002-0.772 0.005h0.039c-0.175-0.002-0.381-0.003-0.588-0.003-29.795 0-53.982 24.009-54.269 53.736v377.59z" />
<glyph unicode="&#xe90b;" glyph-name="doc" d="M819.251 29.867h-614.451v819.2h409.6v-204.8h204.8l0.051-614.4zM686.797 951.467h-481.997c-56.474 0-102.4-45.978-102.4-102.4v-819.2c0-56.422 45.926-102.4 102.4-102.4h614.4c56.474 0 102.4 45.978 102.4 102.4v686.746l-234.803 234.854zM614.4 490.616h-307.2v-102.4h307.2zM307.2 183.416h409.6v102.4h-409.6z" />
<glyph unicode="&#xe90c;" glyph-name="cloud-in" horiz-adv-x="1126" d="M464.099 378.69c-8.88-8.874-21.144-14.362-34.69-14.362-27.105 0-49.076 21.973-49.076 49.076 0 13.558 5.498 25.832 14.386 34.715v0l138.613 138.662c8.778 8.85 20.943 14.329 34.388 14.329 0.124 0 0.247 0 0.37-0.001h-0.019c12.561 0 25.073-4.759 34.788-14.475l138.466-138.516c8.889-8.883 14.386-21.156 14.386-34.715 0-27.105-21.973-49.076-49.076-49.076-13.546 0-25.81 5.488-34.691 14.363v0l-54.857 54.906v-469.862c0-27.099-21.968-49.067-49.067-49.067s-49.067 21.968-49.067 49.067v0 469.862l-54.857-54.955zM887.005 208.822h-122.912c-27.099 0-49.067 21.968-49.067 49.067s21.968 49.067 49.067 49.067v0h122.912c67.774 0 122.716 54.941 122.716 122.716s-54.941 122.716-122.716 122.716v0h-70.411l-6.869 40.971c-20.413 116.676-120.956 204.226-241.948 204.226s-221.534-87.549-241.734-202.754l-0.214-1.472-6.869-40.971h-70.313c-67.774 0-122.716-54.941-122.716-122.716s54.941-122.716 122.716-122.716v0h122.912c27.099 0 49.067-21.968 49.067-49.067s-21.968-49.067-49.067-49.067v0h-122.912c-2.778-0.125-6.036-0.196-9.309-0.196-121.999 0-220.898 98.899-220.898 220.898s98.899 220.898 220.898 220.898c0.030 0 0.059 0 0.089 0h-0.005c22.374 114.374 160.006 245.579 328.404 245.579 155.337-0.035 286.586-103.125 329.1-244.617l0.628-2.433c108.192 0 210.005-97.446 210.005-219.279 0 0 0 0 0 0 0-121.868-98.709-220.681-220.538-220.849h-0.016z" />
<glyph unicode="&#xe90d;" glyph-name="edit" d="M153.604 195.821l0.063-42.047c6.526 2.324 14.053 3.666 21.894 3.666 37.113 0 67.2-30.087 67.2-67.2 0-7.965-1.386-15.605-3.928-22.696l0.147 0.469h41.599l69.44 69.44-127.358 127.358-69.055-68.992zM653.887 695.4l-367.804-367.228 127.23-127.358 367.549 367.676-126.975 126.91zM806.845 848.359l126.91-126.91c16.217-16.215 26.246-38.616 26.246-63.359s-10.030-47.144-26.246-63.359l-599.994-600.314c-10.197-9.179-23.553-15.028-38.258-15.739l-0.142-0.006h-186.557c-0.020 0-0.041 0-0.063 0-24.707 0-44.735 20.028-44.735 44.735 0 0.022 0 0.046 0 0.067v-0.004 186.686c0 12.416 7.168 29.696 15.808 38.336l600.314 599.931c16.208 16.177 38.584 26.183 63.296 26.183 24.775 0 47.202-10.057 63.422-26.309l0.002-0.002z" />
<glyph unicode="&#xe90e;" glyph-name="error" d="M512 170.667c-28.277 0-51.2 22.923-51.2 51.2s22.923 51.2 51.2 51.2v0c28.277 0 51.2-22.923 51.2-51.2s-22.923-51.2-51.2-51.2v0zM460.8 631.321c0 28.277 22.923 51.2 51.2 51.2s51.2-22.923 51.2-51.2v0-255.707c0-28.277-22.923-51.2-51.2-51.2s-51.2 22.923-51.2 51.2v255.707zM512-85.333c-282.77 0-512 229.23-512 512s229.23 512 512 512v0c282.77 0 512-229.23 512-512s-229.23-512-512-512v0zM512 17.067c226.215 0 409.6 183.385 409.6 409.6s-183.385 409.6-409.6 409.6v0c-226.215 0-409.6-183.383-409.6-409.6s183.383-409.6 409.6-409.6v0z" />
<glyph unicode="&#xe90f;" glyph-name="done" d="M512-85.333c-282.77 0-512 229.23-512 512s229.23 512 512 512v0c282.77 0 512-229.23 512-512s-229.23-512-512-512v0zM512 17.067c226.216 0 409.6 183.384 409.6 409.6s-183.384 409.6-409.6 409.6v0c-226.216 0-409.6-183.384-409.6-409.6s183.384-409.6 409.6-409.6v0zM758.711 646.096l-313.783-316.709-127.854 127.854-61.074-66.706 188.855-183.296 380.562 377.783z" />
<glyph unicode="&#xe910;" glyph-name="locked" horiz-adv-x="832" d="M364.032 158.763c-31.208 17.8-51.93 50.82-52.032 88.69v0.014c0 56.576 46.592 102.4 104 102.4s104-45.824 104-102.4c0-37.888-20.928-71.040-52.032-88.704v-46.080c-0.109-24.554-20.039-44.416-44.608-44.416-0.023 0-0.045 0-0.068 0h-14.588c-24.566 0.071-44.483 19.876-44.736 44.392v46.104zM104 503.467v128c0 169.6 139.648 307.2 312 307.2 172.288 0 312-137.6 312-307.2v-128h14.976c49.152 0 89.024-40.448 89.024-89.408v-409.984c0-49.344-40.128-89.408-89.024-89.408h-654.016c-49.157 0.326-88.888 40.215-88.96 89.401v409.991c0 49.344 40.128 89.408 89.024 89.408h14.976zM208 503.467h416v128c0 113.024-93.184 204.8-208 204.8-114.88 0-208-91.712-208-204.8v-128zM104 401.067v-384h624v384h-624z" />
<glyph unicode="&#xe911;" glyph-name="menu" d="M361.143 757.334h653.716v-100.571h-653.716v100.571zM9.138 455.618h1005.716v-100.571h-1005.716v100.571zM160 153.905h854.862v-100.571h-854.862v100.571z" />
<glyph unicode="&#xe912;" glyph-name="pipeline" d="M298.667 362.665h-170.669v-213.332h170.669v213.332zM383.999 405.334v-298.668c0-23.565-19.104-42.669-42.669-42.669v0h-256.001c-23.565 0-42.669 19.104-42.669 42.669v0 298.668c0 23.565 19.104 42.669 42.669 42.669v0h256.001c23.565 0 42.669-19.104 42.669-42.669v0zM896.002 362.665h-170.669v-213.332h170.669v213.332zM981.333 405.334v-298.668c0-23.565-19.104-42.669-42.669-42.669v0h-256.001c-23.565 0-42.669 19.104-42.669 42.669v0 298.668c0 23.565 19.104 42.669 42.669 42.669v0h256.001c23.565 0 42.669-19.104 42.669-42.669v0zM938.667 448.003v-384.002c0.001 15.707 8.488 29.437 21.132 36.837l0.202 0.109c12.844-7.516 21.334-21.24 21.334-36.948v0 384.002c-0.001-15.707-8.488-29.437-21.132-36.837l-0.202-0.109c-12.844 7.516-21.334 21.24-21.334 36.948v0zM938.667 106.666h42.669c-0.016 0-0.036 0-0.056 0-7.838 0-15.178-2.123-21.478-5.824l0.2 0.108c-6.101 3.592-13.44 5.716-21.279 5.716-0.020 0-0.040 0-0.060 0h0.004zM981.333 405.334h-42.669c0.016 0 0.036 0 0.056 0 7.838 0 15.178 2.123 21.478 5.824l-0.2-0.108c6.101-3.592 13.44-5.716 21.279-5.716 0.020 0 0.040 0 0.060 0h-0.004zM938.667 490.666h42.669c23.565 0 42.669-19.104 42.669-42.669v0-384.002c0-23.565-19.104-42.669-42.669-42.669v0h-42.669c-23.565 0-42.669 19.104-42.669 42.669v0 384.002c0 23.565 19.104 42.669 42.669 42.669v0zM42.666 448.003v-384.002c0.001 15.707 8.488 29.437 21.132 36.837l0.202 0.109c12.844-7.516 21.334-21.24 21.334-36.948v0 384.002c-0.001-15.707-8.488-29.437-21.132-36.837l-0.202-0.109c-12.844 7.516-21.334 21.24-21.334 36.948v0zM42.666 106.666h42.669c-0.016 0-0.036 0-0.056 0-7.838 0-15.178-2.123-21.478-5.824l0.2 0.108c-6.101 3.592-13.44 5.716-21.279 5.716-0.020 0-0.040 0-0.060 0h0.004zM85.333 405.334h-42.669c0.016 0 0.036 0 0.056 0 7.838 0 15.178 2.123 21.478 5.824l-0.2-0.108c6.101-3.592 13.44-5.716 21.279-5.716 0.020 0 0.040 0 0.060 0h-0.004zM42.666 490.666h42.669c23.565 0 42.669-19.104 42.669-42.669v0-384.002c0-23.565-19.104-42.669-42.669-42.669v0h-42.669c-23.565 0-42.669 19.104-42.669 42.669v0 384.002c0 23.565 19.104 42.669 42.669 42.669v0zM682.669 746.667h-341.333c15.707-0.001 29.437-8.488 36.837-21.132l0.109-0.202c-7.516-12.844-21.24-21.334-36.948-21.334h341.333c-15.707 0.001-29.437 8.488-36.837 21.132l-0.109 0.202c7.516 12.844 21.24 21.334 36.948 21.334v0zM383.999 746.667v-42.669c0 0.016 0 0.036 0 0.056 0 7.838-2.123 15.178-5.824 21.478l0.108-0.2c3.592 6.101 5.716 13.44 5.716 21.279 0 0.020 0 0.040 0 0.060v-0.004zM640 704.002v42.669c0-7.768 2.092-15.060 5.716-21.334-3.592-6.101-5.716-13.44-5.716-21.279 0-0.020 0-0.040 0-0.060v0.004zM725.332 746.667v-42.669c0-23.565-19.104-42.669-42.669-42.669v0h-341.333c-23.565 0-42.669 19.104-42.669 42.669v0 42.669c0 23.565 19.104 42.669 42.669 42.669v0h341.333c23.565 0 42.669-19.104 42.669-42.669v0zM469.331 618.666v42.669c0 23.565 19.104 42.669 42.669 42.669s42.669-19.104 42.669-42.669v0c0-23.565-19.104-42.669-42.669-42.669s-42.669 19.104-42.669 42.669v0-42.669zM469.331 618.666v-42.669c0 13.953 6.7 26.367 17.068 34.135l-17.068 8.534zM554.669 661.335v-85.332c0-23.565-19.104-42.669-42.669-42.669s-42.669 19.104-42.669 42.669v0 85.332c0 23.565 19.104 42.669 42.669 42.669s42.669-19.104 42.669-42.669v0zM383.999 490.666v-384.002h256.001v384.002h-256.001zM341.331 576.003h341.333c23.565 0 42.669-19.104 42.669-42.669v0-469.334c0-23.565-19.104-42.669-42.669-42.669v0h-341.333c-23.565 0-42.669 19.104-42.669 42.669v0 469.334c0 23.565 19.104 42.669 42.669 42.669v0z" />
<glyph unicode="&#xe913;" glyph-name="check" d="M360.496 160.576c30.035-29.98 78.694-29.98 108.727 0l422.752 422.807c14.315 13.972 23.19 33.454 23.19 55.015 0 42.443-34.408 76.847-76.847 76.847-21.558 0-41.044-8.878-54.996-23.174l-0.014-0.014-368.386-369.482-176.352 177.334c-13.748 13.058-32.379 21.089-52.884 21.089-42.443 0-76.847-34.408-76.847-76.847 0-20.521 8.042-39.161 21.149-52.946l230.569-230.569z" />
<glyph unicode="&#xe914;" glyph-name="search" horiz-adv-x="1088" d="M758.528 312.875h-48l-16.96 15.36c59.52 64.896 95.296 149.12 95.296 240.64 0 204.224-176.64 369.792-394.432 369.792-217.856 0-394.432-165.568-394.432-369.792 0-204.16 176.64-369.792 394.432-369.792 0.512-0.002 1.118-0.004 1.725-0.004 96.796 0 185.725 33.681 255.707 89.964l-0.792-0.616 16.448-15.936v-44.928l303.36-283.904 90.432 84.8-302.784 284.416zM394.432 312.875c-151.040 0-273.088 114.368-273.088 256 0 141.696 121.984 256 273.088 256 151.040 0 273.088-114.304 273.088-256 0-141.632-121.984-256-273.088-256z" />
<glyph unicode="&#xe915;" glyph-name="sorting-descending" d="M335.487 329.83c-15.395 14.566-36.229 23.521-59.156 23.521-22.803 0-43.538-8.86-58.947-23.325l0.046 0.043c-15.069-14.166-24.453-34.227-24.453-56.481 0-22.331 9.45-42.454 24.569-56.59l0.044-0.041 235.555-225.664c16.352-15.634 37.65-23.452 59.029-23.292 21.298 0 42.596 7.737 59.029 23.531l235.316 225.425c15.102 14.221 24.506 34.347 24.506 56.668 0 22.207-9.307 42.239-24.233 56.41l-0.034 0.032c-15.342 14.474-36.083 23.371-58.902 23.371-22.941 0-43.782-8.993-59.191-23.644l0.036 0.035-93.329-89.34v565.077c0.079 44.032-37.172 79.768-83.198 79.768-46.425 0-83.438-35.736-83.438-79.848v-564.918l-93.249 89.34z" />
<glyph unicode="&#xe916;" glyph-name="import" d="M381.644 641.334c-11.254-11.414-26.886-18.485-44.171-18.485-17.194 0-32.753 6.997-43.987 18.299l-0.003 0.003c-11.28 11.406-18.249 27.096-18.249 44.414 0 17.409 7.042 33.173 18.433 44.599l-0.002-0.002 175.774 177.355c11.209 11.365 26.778 18.405 43.991 18.405 17.303 0 32.944-7.114 44.159-18.577l0.009-0.011 175.652-177.172c24.32-24.563 24.504-64.448 0.182-89.012-11.216-11.351-26.783-18.38-43.991-18.38-17.299 0-32.938 7.103-44.16 18.552l-0.009 0.009-69.616 70.224v-475.398c0-34.656-27.847-62.807-62.26-62.807-34.595 0-62.199 28.151-62.199 62.807v475.459l-69.556-70.346zM899.602 78.566v188.358c0 34.656 28.941 62.746 64.631 62.746 35.629 0 64.57-28.090 64.57-62.746v-188.358c0-69.252-57.882-125.553-128.897-125.553h-775.812c-71.258 0-128.897 56.058-128.897 125.553v188.358c0 34.656 28.941 62.746 64.631 62.746 35.629 0 64.57-28.090 64.57-62.746 0 0-0.182-188.358-0.304-188.358h775.508z" />
<glyph unicode="&#xe917;" glyph-name="remove" d="M886.4 732.014c8.927 8.986 14.442 21.362 14.442 35.029 0 13.742-5.576 26.182-14.588 35.18l-11.502 11.502c-9.004 9.002-21.443 14.57-35.181 14.57-13.666 0-26.041-5.51-35.033-14.425l-292.544-292.544-292.544 292.595c-8.977 8.896-21.337 14.395-34.978 14.395-13.743 0-26.182-5.576-35.181-14.588l-11.502-11.502c-9.019-9.008-14.596-21.452-14.596-35.208 0-13.652 5.498-26.020 14.4-35.010l292.544-292.544-292.544-292.544c-8.927-8.986-14.442-21.362-14.442-35.029 0-13.742 5.576-26.182 14.588-35.18l11.502-11.502c9.008-9.018 21.452-14.596 35.207-14.596 13.675 0 26.064 5.517 35.058 14.448l292.494 292.544 292.544-292.544c8.986-8.927 21.362-14.442 35.029-14.442 13.742 0 26.182 5.576 35.18 14.588l11.502 11.502c9.018 9.008 14.596 21.452 14.596 35.207 0 13.675-5.517 26.064-14.448 35.058l-292.544 292.494 292.544 292.544z" />
<glyph unicode="&#xe918;" glyph-name="unlocked" horiz-adv-x="1088" d="M642.88 158.763c-29.829 18.405-49.411 50.908-49.411 87.984 0 0.253 0.001 0.506 0.003 0.759v-0.039c0 56.576 44.288 102.4 98.88 102.4 54.656 0 98.944-45.824 98.944-102.4 0-37.888-19.904-71.040-49.472-88.704v-46.080c-0.109-24.554-20.039-44.416-44.608-44.416-0.068 0-0.135 0-0.203 0h-9.27c-24.579 0.071-44.511 19.868-44.8 44.389v46.107zM494.528 503.467v128c0 113.024-88.576 204.8-197.76 204.8-109.312 0-197.888-91.712-197.888-204.8v-83.328c0-24.742-20.058-44.8-44.8-44.8h-9.28c-24.742 0-44.8 20.058-44.8 44.8v0 83.328c0 169.6 132.8 307.2 296.704 307.2 163.84 0 296.768-137.6 296.768-307.2v-128h405.312c49.252-0.218 89.107-40.14 89.216-89.397v-409.995c-0.109-49.268-39.964-89.19-89.195-89.408h-612.885c-49.28 0.182-89.171 40.118-89.28 89.398v409.994c0.109 49.312 40.037 89.263 89.33 89.408h108.558zM395.648 401.067v-384h593.472v384h-593.472z" />
<glyph unicode="&#xe919;" glyph-name="rules" d="M679.977 142.508v642.763h-596.634v-670.477c0-49.373 40.025-89.398 89.398-89.398v0h524.045c-10.666 34.748-16.808 74.687-16.808 116.062 0 0.368 0.001 0.738 0.002 1.104v-0.056zM-6.055 874.668h775.428v-732.16c0-75.094 24.586-143.929 73.844-206.506h-670.477c-98.746 0-178.794 80.048-178.794 178.794v0 759.872zM197.189 606.477v89.398h357.587v-89.398zM197.189 382.985v89.398h357.587v-89.398zM197.189 159.495v89.398h357.587v-89.398zM776.165 107.642c0-45.422 36.822-82.246 82.246-82.246s82.246 36.822 82.246 82.246v0 230.643h-164.49v-230.643zM686.771 427.683h343.283v-320.041c0-94.795-76.847-171.642-171.642-171.642s-171.642 76.847-171.642 171.642v0 320.041z" />
<glyph unicode="&#xe91a;" glyph-name="rail" d="M383.868 787.674c-15.99-33.060-49.272-55.46-87.787-55.462h-27.124c-53.692 0-97.218-43.525-97.218-97.218v0-435.631c0-53.692 43.525-97.218 97.218-97.218v0h486.088c53.692 0 97.218 43.525 97.218 97.218v0 435.631c0 53.692-43.525 97.218-97.218 97.218v0h-27.123c-38.515 0.003-71.798 22.402-87.535 54.884l-0.253 0.58c-6.591 13.73-20.385 23.041-36.353 23.041-0.019 0-0.039 0-0.057 0h-183.447c-0.017 0-0.036 0-0.054 0-15.969 0-29.762-9.311-36.249-22.8l-0.104-0.241zM296.081 829.428c22.581 46.792 69.662 78.503 124.148 78.503 0.017 0 0.033 0 0.050 0h183.447c54.83 0 102.176-32.082 124.196-78.503h27.123c107.383 0 194.435-87.051 194.435-194.435v0-435.631c0-107.383-87.051-194.435-194.435-194.435v0h-486.088c-107.383 0-194.435 87.051-194.435 194.435v0 435.631c0 107.383 87.051 194.435 194.435 194.435v0h27.123zM133.436 579.822c-26.845 0-48.608 21.763-48.608 48.608s21.763 48.608 48.608 48.608v0h710.999c26.845 0 48.608-21.763 48.608-48.608s-21.763-48.608-48.608-48.608v0h-710.999zM780.515-3.919c-8.442 8.733-13.645 20.643-13.645 33.769 0 26.845 21.763 48.608 48.608 48.608 13.126 0 25.037-5.203 33.783-13.658l78.49-78.49c8.442-8.733 13.645-20.643 13.645-33.769 0-26.845-21.763-48.608-48.608-48.608-13.126 0-25.037 5.203-33.783 13.658l-78.49 78.49zM187.393-82.422c-8.852-9.156-21.244-14.84-34.964-14.84-26.845 0-48.608 21.763-48.608 48.608 0 13.72 5.684 26.112 14.826 34.951l78.565 78.517c8.852 9.156 21.244 14.84 34.964 14.84 26.845 0 48.608-21.763 48.608-48.608 0-13.72-5.684-26.112-14.826-34.951l-78.565-78.517zM133.436 300.323c-26.845 0-48.608 21.763-48.608 48.608s21.763 48.608 48.608 48.608v0h710.999c26.845 0 48.608-21.763 48.608-48.608s-21.763-48.608-48.608-48.608v0h-710.999zM565.471 200.675c0-28.188-22.851-51.039-51.039-51.039s-51.039 22.851-51.039 51.039c0 28.188 22.851 51.039 51.039 51.039s51.039-22.851 51.039-51.039z" />
<glyph unicode="&#xe91b;" glyph-name="copy" d="M1008 703.239c-10.672 10.662-23.617 15.998-38.848 15.998h-237.727c-22.851 0-47.24-7.618-73.137-22.857v187.423c0 15.243-5.328 28.205-16 38.862-10.672 10.666-23.617 16.002-38.864 16.002h-237.707c-15.239 0-32.003-3.809-50.287-11.424-18.285-7.618-32.76-16.764-43.432-27.432l-233.142-233.144c-10.668-10.666-19.814-25.144-27.432-43.428-7.616-18.291-11.424-35.044-11.424-50.289v-383.996c0-15.247 5.33-28.207 15.996-38.862 10.668-10.672 23.623-16 38.856-16h310.862v-164.578c0-15.231 5.328-28.191 15.996-38.848 10.662-10.672 23.617-16 38.856-16h548.582c15.231 0 28.191 5.328 38.848 16 10.672 10.658 16 23.617 16 38.848v694.86c0.004 15.239-5.324 28.197-15.996 38.864zM658.288 597.52v-170.852h-170.856l170.856 170.852zM292.569 816.952v-170.852h-170.852l170.852 170.852zM404.573 447.239c-10.668-10.668-19.814-25.146-27.432-43.434-7.616-18.295-11.424-35.042-11.424-50.289v-146.273h-292.569v365.706h237.705c15.243 0 28.195 5.332 38.862 16 10.662 10.668 16 23.619 16 38.852v237.717h219.434v-237.715l-180.576-180.566zM950.849-12.196h-512.003v365.726h237.723c15.239 0 28.185 5.328 38.848 16 10.664 10.658 16 23.611 16 38.848v237.719h219.418v-658.294h0.014z" />
<glyph unicode="&#xe91c;" glyph-name="truck" d="M905.741 80.366v157.903c0 33.928-27.504 61.433-61.432 61.433h-16.059v576.474c0 5.157-2.588 9.969-6.889 12.812l-38.994 25.774c-10.212 6.748-23.825-0.572-23.825-12.812v-185.143l-11.62 31.346c-15.628 42.158-55.84 70.137-100.802 70.137h-268.475c-45.227 0-85.616-28.304-101.051-70.815l-11.135-30.668v185.143c0 12.238-13.615 19.56-23.826 12.812l-38.996-25.772c-4.302-2.843-6.89-7.655-6.89-12.812v-576.475h-16.058c-33.928 0-61.432-27.504-61.432-61.433v-157.903h-26.172c-8.481 0-15.357-6.875-15.357-15.358v-84.903c0-8.481 6.875-15.358 15.357-15.358h66.255v-40.696c0-16.965 13.752-30.715 30.717-30.715h81.393c16.965 0 30.717 13.752 30.717 30.715v40.696h421.67v-40.696c0-16.965 13.754-30.715 30.715-30.715h81.395c16.965 0 30.715 13.752 30.715 30.715v40.696h66.255c8.483 0 15.358 6.877 15.358 15.358v84.902c0 8.483-6.875 15.358-15.358 15.358l-26.176 0.002zM285.806 631.258h452.387v-151.324h-452.387v151.324zM275.287 123.344h-52.467c-16.031 0-29.027 12.997-29.027 29.028v0.733c0 16.031 12.996 29.027 29.027 29.027h52.465c16.031 0 29.027-12.996 29.027-29.027v-0.733c0.002-16.031-12.994-29.028-29.025-29.028zM616.404 114.786h-208.809c-16.965 0-30.717 13.754-30.717 30.715v194.619c0 16.963 13.752 30.715 30.717 30.715h208.809c16.963 0 30.715-13.754 30.715-30.715v-194.617c0.002-16.963-13.752-30.717-30.715-30.717zM801.178 123.344h-52.465c-16.029 0-29.027 12.997-29.027 29.028v0.733c0 16.031 12.997 29.027 29.027 29.027h52.465c16.031 0 29.028-12.996 29.028-29.027v-0.733c0-16.031-12.997-29.028-29.028-29.028zM611.735 258.425h-199.961c-8.398 0-15.204 6.807-15.204 15.206v0.308c0 8.398 6.807 15.203 15.204 15.203h199.961c8.398 0 15.204-6.805 15.204-15.203v-0.308c0-8.399-6.807-15.206-15.204-15.206zM611.735 319.858h-199.961c-8.398 0-15.204 6.807-15.204 15.204v0.308c0 8.396 6.807 15.203 15.204 15.203h199.961c8.398 0 15.204-6.807 15.204-15.203v-0.308c0-8.398-6.807-15.204-15.204-15.204zM611.735 135.56h-199.961c-8.398 0-15.204 6.807-15.204 15.204v0.308c0 8.398 6.807 15.204 15.204 15.204h199.961c8.398 0 15.204-6.807 15.204-15.204v-0.308c0-8.398-6.807-15.204-15.204-15.204zM611.735 196.994h-199.961c-8.398 0-15.204 6.807-15.204 15.203v0.308c0 8.398 6.807 15.204 15.204 15.204h199.961c8.398 0 15.204-6.807 15.204-15.204v-0.308c0-8.396-6.807-15.203-15.204-15.203z" />
<glyph unicode="&#xe91d;" glyph-name="radio_button_checked" d="M512 63.334c188 0 342 154 342 342s-154 342-342 342-342-154-342-342 154-342 342-342zM512 831.334c236 0 426-190 426-426s-190-426-426-426-426 190-426 426 190 426 426 426zM512 619.334c118 0 214-96 214-214s-96-214-214-214-214 96-214 214 96 214 214 214z" />
<glyph unicode="&#xe91e;" glyph-name="radio_button_unchecked" d="M512 63.334c188 0 342 154 342 342s-154 342-342 342-342-154-342-342 154-342 342-342zM512 831.334c236 0 426-190 426-426s-190-426-426-426-426 190-426 426 190 426 426 426z" />
<glyph unicode="&#xe91f;" glyph-name="table" d="M480 830.999h-359.532v-359.532h359.532v359.532zM544 830.999v-359.532h359.532v359.532h-359.532zM480 47.935v359.532h-359.532v-359.532h359.532zM544 47.935h359.532v359.532h-359.532v-359.532zM60.234 951.467h903.531c33.268 0 60.234-26.967 60.234-60.234v-903.531c0-33.268-26.967-60.234-60.234-60.234h-903.531c-33.268 0-60.234 26.967-60.234 60.234v903.531c0 33.268 26.967 60.234 60.234 60.234z" />
<glyph unicode="&#xe920;" glyph-name="clipboard" d="M153.6 541.867v-409.6h409.6v409.6h-409.6zM153.6 593.067h409.6c28.277 0 51.2-22.923 51.2-51.2v-409.6c0-28.277-22.923-51.2-51.2-51.2h-409.6c-28.277 0-51.2 22.923-51.2 51.2v409.6c0 28.277 22.923 51.2 51.2 51.2zM460.8 644.267h-51.2v102.4c0 28.277 22.923 51.2 51.2 51.2h409.6c28.277 0 51.2-22.923 51.2-51.2v-409.6c0-28.277-22.923-51.2-51.2-51.2h-204.8v51.2h204.8v409.6h-409.6v-102.4z" />
<glyph unicode="&#xe921;" glyph-name="cloud-out" horiz-adv-x="1040" d="M426.181 125.635l52.038-52.084v445.719c0 25.706 20.839 46.545 46.545 46.545s46.545-20.839 46.545-46.545v0-445.673l52.038 52.131c8.425 8.414 20.059 13.617 32.908 13.617 25.721 0 46.571-20.851 46.571-46.571 0-12.872-5.222-24.524-13.664-32.954l-131.352-131.399c-8.411-8.481-20.069-13.731-32.952-13.731-0.033 0-0.067 0-0.1 0h0.005c-0.085-0.001-0.186-0.001-0.287-0.001-12.754 0-24.294 5.197-32.618 13.589l-131.587 131.494c-8.428 8.428-13.64 20.071-13.64 32.931 0 25.721 20.851 46.571 46.571 46.571 12.86 0 24.503-5.213 32.931-13.64v0zM827.356 286.775h-116.596c-25.706 0-46.545 20.839-46.545 46.545s20.839 46.545 46.545 46.545v0h116.596c64.292 0 116.41 52.119 116.41 116.41s-52.119 116.41-116.41 116.41v0h-66.793l-6.516 38.865c-19.364 110.681-114.741 193.732-229.516 193.732s-210.151-83.051-229.313-192.336l-0.203-1.396-6.516-38.865h-66.7c-64.292 0-116.41-52.119-116.41-116.41s52.119-116.41 116.41-116.41v0h116.596c25.706 0 46.545-20.839 46.545-46.545s-20.839-46.545-46.545-46.545v0h-116.596c-2.635-0.119-5.725-0.186-8.831-0.186-115.73 0-209.548 93.818-209.548 209.548s93.818 209.548 209.548 209.548c0.028 0 0.057 0 0.085 0h-0.004c21.225 108.497 151.785 232.96 311.529 232.96 147.355-0.033 271.86-97.826 312.19-232.049l0.596-2.308c102.633 0 199.215-92.439 199.215-208.012 0 0 0 0 0 0 0-115.606-93.638-209.342-209.206-209.501h-0.015z" />
<glyph unicode="&#xe922;" glyph-name="plus-circle-solid" d="M512 922.667c-274 0-496-222-496-496s222-496 496-496 496 222 496 496-222 496-496 496zM800 370.667c0-13.2-10.8-24-24-24h-184v-184c0-13.2-10.8-24-24-24h-112c-13.2 0-24 10.8-24 24v184h-184c-13.2 0-24 10.8-24 24v112c0 13.2 10.8 24 24 24h184v184c0 13.2 10.8 24 24 24h112c13.2 0 24-10.8 24-24v-184h184c13.2 0 24-10.8 24-24v-112z" />
<glyph unicode="&#xe923;" glyph-name="minus-circle-solid" d="M512 922.667c-274 0-496-222-496-496s222-496 496-496 496 222 496 496-222 496-496 496zM248 346.667c-13.2 0-24 10.8-24 24v112c0 13.2 10.8 24 24 24h528c13.2 0 24-10.8 24-24v-112c0-13.2-10.8-24-24-24h-528z" />
<glyph unicode="&#xe924;" glyph-name="excel" d="M743.028 554.667h-135.292l-95.732-141.032-95.742 141.032h-135.29l162.162-242.464-182.972-269.536h251.838v91.576h-50.156l50.156 74.994 111.396-166.57h140.444l-182.976 269.536 162.164 242.464zM917.806 709.591c-22.21 30.292-53.174 65.7-87.178 99.704s-69.412 64.964-99.704 87.178c-51.574 37.82-76.592 42.194-90.924 42.194h-496c-44.112 0-80-35.888-80-80v-864c0-44.112 35.886-80 80-80h736c44.112 0 80 35.888 80 80v624c0 14.332-4.372 39.35-42.194 90.924v0zM785.374 764.041c30.7-30.7 54.8-58.398 72.58-81.374h-153.954v153.946c22.982-17.78 50.678-41.878 81.374-72.572v0zM896-5.333c0-8.672-7.328-16-16-16h-736c-8.672 0-16 7.328-16 16v864c0 8.672 7.328 16 16 16 0 0 495.956 0.002 496 0v-224c0-17.672 14.324-32 32-32h224v-624z" />
<glyph unicode="&#xe925;" glyph-name="toggle-on" horiz-adv-x="1170" d="M0 417.524c0 201.714 164 365.714 365.714 365.714h438.857c201.714 0 365.714-164 365.714-365.714s-164-365.714-365.714-365.714h-438.857c-201.714 0-365.714 164-365.714 365.714zM804.571 124.953c161.143 0 292.571 131.429 292.571 292.571s-131.429 292.571-292.571 292.571-292.571-131.429-292.571-292.571 131.429-292.571 292.571-292.571z" />
<glyph unicode="&#xe926;" glyph-name="toggle-off" horiz-adv-x="1170" d="M658.286 417.524c0 161.143-131.429 292.571-292.571 292.571s-292.571-131.429-292.571-292.571 131.429-292.571 292.571-292.571 292.571 131.429 292.571 292.571zM1097.143 417.524c0 161.143-131.429 292.571-292.571 292.571h-220.571c89.143-66.857 147.429-173.143 147.429-292.571s-58.286-225.714-147.429-292.571h220.571c161.143 0 292.571 131.429 292.571 292.571zM1170.286 417.524c0-201.714-164-365.714-365.714-365.714h-438.857c-201.714 0-365.714 164-365.714 365.714s164 365.714 365.714 365.714h438.857c201.714 0 365.714-164 365.714-365.714z" />
<glyph unicode="&#xe927;" glyph-name="backward" d="M600 109.867l-316.133 316.8 316.133 316.8-97.333 97.333-414.133-414.133 414.133-414.133zM866.667 109.867l-316.133 316.8 316.133 316.8-97.333 97.333-414.133-414.133 414.133-414.133z" />
<glyph unicode="&#xe928;" glyph-name="forward" d="M424 743.467l316.133-316.8-316.133-316.8 97.333-97.333 414.133 414.133-414.133 414.133zM157.333 743.467l316.133-316.8-316.133-316.8 97.333-97.333 414.133 414.133-414.133 414.133z" />
<glyph unicode="&#xe953;" glyph-name="calendar" d="M320 554.667h128v-128h-128zM512 554.667h128v-128h-128zM704 554.667h128v-128h-128zM128 170.667h128v-128h-128zM320 170.667h128v-128h-128zM512 170.667h128v-128h-128zM320 362.667h128v-128h-128zM512 362.667h128v-128h-128zM704 362.667h128v-128h-128zM128 362.667h128v-128h-128zM832 938.667v-64h-128v64h-448v-64h-128v64h-128v-1024h960v1024h-128zM896-21.333h-832v704h832v-704z" />
<glyph unicode="&#xe976;" glyph-name="user-tie" d="M320 746.667c0 106.039 85.961 192 192 192s192-85.961 192-192c0-106.039-85.961-192-192-192s-192 85.961-192 192zM768.078 490.667h-35.424l-199.104-404.244 74.45 372.244-96 96-96-96 74.45-372.244-199.102 404.244h-35.424c-127.924 0-127.924-85.986-127.924-192v-320h768v320c0 106.014 0 192-127.922 192z" />
<glyph unicode="&#xea2e;" glyph-name="loop2" d="M889.68 772.347c-93.608 102.216-228.154 166.32-377.68 166.32-282.77 0-512-229.23-512-512h96c0 229.75 186.25 416 416 416 123.020 0 233.542-53.418 309.696-138.306l-149.696-149.694h352v352l-134.32-134.32zM928 426.667c0-229.75-186.25-416-416-416-123.020 0-233.542 53.418-309.694 138.306l149.694 149.694h-352v-352l134.32 134.32c93.608-102.216 228.154-166.32 377.68-166.32 282.77 0 512 229.23 512 512h-96z" />
</font>
</defs>
</svg>
